<?xml version="1.0" standalone="no"?>
<!DOCTYPE svg PUBLIC "-//W3C//DTD SVG 20010904//EN"
 "http://www.w3.org/TR/2001/REC-SVG-20010904/DTD/svg10.dtd">
<svg version="1.0" xmlns="http://www.w3.org/2000/svg"
 width="708.000000pt" height="675.000000pt" viewBox="0 0 708.000000 675.000000"
 preserveAspectRatio="xMidYMid meet">

<g transform="translate(0.000000,675.000000) scale(0.100000,-0.100000)"
fill="#000000" stroke="none">
<path d="M2980 6707 c-41 -24 -113 -68 -160 -98 -47 -31 -146 -94 -220 -141
-74 -47 -187 -119 -250 -160 -63 -41 -277 -177 -475 -303 -198 -125 -412 -261
-475 -302 -63 -41 -176 -113 -250 -160 -74 -47 -173 -110 -219 -140 -46 -30
-127 -81 -180 -112 -53 -32 -125 -78 -161 -103 -36 -25 -114 -75 -175 -112
-60 -36 -119 -73 -130 -82 -20 -15 -20 -27 -20 -1684 l0 -1668 25 -27 c28 -30
83 -60 405 -225 423 -216 813 -417 1050 -540 72 -37 247 -127 390 -200 143
-73 292 -150 330 -170 83 -45 549 -283 620 -318 28 -13 91 -48 141 -78 50 -30
97 -54 105 -53 8 0 124 67 259 148 l245 148 -3 64 c-2 35 -5 65 -6 67 -3 3
-178 -101 -218 -129 -30 -21 -48 -24 -48 -8 0 12 50 83 365 521 88 122 176
245 196 272 20 28 85 119 144 201 60 83 157 219 217 302 60 84 113 153 118
153 5 0 12 -12 16 -28 17 -77 20 -79 31 -14 9 59 9 63 -9 59 -31 -9 -30 11 2
51 17 21 33 49 35 63 9 45 26 202 22 206 -5 5 -48 -51 -109 -142 -54 -79 -95
-138 -148 -210 -76 -103 -344 -477 -466 -649 -70 -98 -132 -186 -140 -195 -7
-9 -50 -68 -95 -131 -45 -63 -91 -126 -101 -140 -11 -14 -80 -110 -154 -215
-141 -197 -162 -225 -175 -225 -6 0 -85 98 -220 275 -94 123 -925 1238 -999
1340 -20 28 -76 104 -126 170 -49 66 -96 130 -104 142 -8 12 -49 66 -91 120
-86 112 -104 142 -92 153 4 5 357 11 783 14 426 4 908 11 1070 16 162 5 496
10 743 10 l447 0 0 62 0 61 -527 -7 c-291 -4 -870 -11 -1288 -16 -418 -5 -858
-12 -977 -16 -194 -6 -218 -5 -224 9 -5 15 54 122 192 347 28 47 69 117 90
155 21 39 55 97 76 130 21 33 58 98 83 145 25 47 91 159 146 250 55 91 116
192 134 225 18 33 69 119 112 191 100 168 179 305 256 444 26 48 160 269 206
340 23 36 35 58 65 115 30 60 130 229 158 268 24 33 34 28 74 -41 15 -26 50
-83 79 -127 29 -44 114 -179 190 -300 76 -121 165 -263 199 -315 34 -52 86
-133 116 -180 29 -47 83 -132 120 -190 117 -185 312 -493 347 -550 19 -30 67
-105 106 -167 40 -62 117 -182 171 -268 54 -85 101 -153 104 -150 3 2 6 15 7
27 1 13 5 52 9 88 l7 65 -65 103 c-40 63 -94 130 -139 175 -59 57 -77 81 -87
117 -24 95 -40 129 -102 225 -36 55 -81 127 -102 160 -48 76 -436 688 -517
815 -33 52 -96 154 -141 225 -44 72 -119 188 -165 259 -86 132 -90 146 -38
146 41 0 451 -30 475 -35 14 -3 102 -12 195 -20 235 -20 488 -43 560 -50 l60
-6 53 54 53 54 -103 11 c-57 7 -164 16 -238 22 -74 6 -175 15 -225 20 -180 20
-638 60 -792 68 -67 4 -124 10 -127 13 -11 11 -35 148 -46 264 -6 66 -13 127
-15 135 -7 23 -55 401 -66 515 -5 55 -13 120 -19 145 -15 74 -13 110 8 110 9
0 80 -36 156 -80 76 -44 140 -80 142 -80 3 0 67 -35 142 -78 75 -43 169 -96
207 -117 94 -52 126 -70 218 -122 42 -24 99 -55 125 -70 26 -14 137 -77 247
-138 110 -62 227 -127 260 -145 123 -68 382 -213 435 -244 63 -37 115 -57 125
-48 3 3 42 9 87 12 l80 5 -123 69 c-68 39 -173 98 -234 132 -120 67 -510 285
-590 329 -27 15 -104 58 -170 95 -66 37 -219 123 -340 190 -121 68 -285 160
-365 205 -309 175 -496 275 -514 275 -1 0 -35 -19 -76 -43z m51 -150 c4 -15
12 -89 18 -165 16 -207 64 -565 106 -797 30 -168 31 -201 8 -213 -10 -5 -47
-12 -83 -16 -36 -3 -96 -11 -135 -16 -38 -6 -137 -19 -220 -30 -238 -30 -305
-39 -380 -50 -97 -14 -334 -45 -565 -75 -107 -14 -242 -32 -300 -40 -123 -17
-279 -38 -480 -64 -80 -11 -198 -27 -264 -36 -65 -9 -121 -13 -124 -10 -7 7
29 37 68 57 14 6 115 71 225 143 110 72 236 154 280 182 44 28 163 104 265
170 102 66 290 184 418 264 128 79 355 225 505 324 412 273 624 406 641 401 6
-1 13 -14 17 -29z m112 -1317 c10 -9 -25 -81 -63 -130 -25 -32 -96 -149 -497
-820 -175 -293 -427 -723 -477 -813 -80 -146 -104 -188 -212 -362 -113 -184
-169 -279 -208 -355 -47 -92 -87 -152 -103 -157 -17 -6 -59 65 -108 182 -23
55 -108 231 -187 390 -152 302 -298 602 -298 610 0 3 -68 143 -151 312 -83
169 -171 352 -197 407 -25 56 -74 159 -109 229 -35 70 -63 136 -63 147 0 31
30 39 197 55 172 17 341 37 498 59 55 8 136 19 180 26 44 6 141 19 215 30 181
26 352 48 425 55 33 4 83 10 110 16 88 16 276 40 425 54 167 16 321 37 470 64
100 18 135 18 153 1z m-2673 -630 c35 -74 98 -205 141 -290 42 -85 93 -189
112 -230 86 -187 229 -486 237 -495 8 -9 184 -377 252 -525 17 -36 85 -175
153 -310 67 -135 125 -257 128 -271 9 -34 7 -35 -198 -161 -658 -405 -688
-423 -705 -430 -8 -4 -55 -33 -105 -66 -49 -33 -93 -58 -97 -56 -9 6 -10 2969
-1 2978 10 10 15 1 83 -144z m1146 -2352 c45 -65 171 -234 226 -303 5 -5 36
-48 71 -95 35 -47 124 -166 197 -264 74 -99 158 -210 185 -247 28 -37 82 -109
121 -161 39 -51 87 -117 107 -145 20 -29 44 -61 52 -70 17 -21 190 -251 278
-372 34 -46 95 -125 134 -175 66 -82 85 -116 67 -116 -4 0 -111 53 -238 119
-127 65 -343 176 -481 246 -137 70 -254 131 -260 135 -5 4 -149 78 -320 165
-170 87 -359 184 -420 215 -206 108 -440 228 -660 340 -121 61 -224 115 -228
119 -12 12 38 46 228 159 94 55 234 140 312 189 78 48 215 133 304 188 90 55
181 112 204 127 22 15 45 28 52 28 6 0 37 -37 69 -82z"/>
<path d="M2367 6090 c-51 -32 -177 -93 -217 -104 -54 -16 -96 -40 -122 -70
-48 -54 -37 -57 62 -22 36 13 73 26 83 31 31 13 19 -21 -26 -71 -23 -27 -55
-65 -71 -84 -15 -19 -45 -53 -65 -75 -98 -108 -211 -244 -211 -254 0 -6 17
-11 39 -11 38 0 44 5 146 123 59 67 133 151 165 187 179 204 309 363 305 371
-11 16 -40 9 -88 -21z"/>
<path d="M2635 6071 c-177 -64 -462 -348 -550 -549 -60 -137 122 -169 314 -55
124 74 365 326 423 445 41 82 45 118 14 151 -22 24 -32 27 -88 27 -35 -1 -86
-9 -113 -19z m111 -85 c3 -14 -1 -38 -11 -57 -62 -122 -299 -373 -400 -424
-61 -31 -125 -39 -146 -18 -33 33 65 177 236 348 142 143 191 175 267 175 42
0 48 -3 54 -24z"/>
<path d="M1385 4699 c-113 -56 -185 -182 -172 -303 16 -160 170 -263 316 -211
22 8 42 11 43 7 0 -4 2 -11 3 -17 2 -5 3 -29 4 -51 2 -79 105 -188 199 -213
177 -47 325 31 393 209 30 79 24 187 -15 253 -40 68 -109 124 -174 143 -65 19
-153 15 -201 -9 -44 -22 -51 -21 -51 6 0 77 -55 153 -137 188 -60 26 -155 25
-208 -2z m162 -124 c81 -41 106 -121 62 -206 -50 -98 -196 -100 -260 -3 -44
68 -6 186 71 218 49 21 69 19 127 -9z m420 -193 c73 -38 103 -88 103 -173 0
-169 -187 -246 -321 -131 -69 60 -87 136 -50 218 20 43 74 94 113 106 36 11
113 1 155 -20z"/>
<path d="M641 3784 c-142 -119 -133 -584 15 -713 19 -17 44 -31 54 -31 25 0
25 -16 0 -74 -32 -76 -59 -106 -95 -106 -38 0 -56 18 -85 85 -17 39 -22 72
-23 160 -2 100 -4 113 -27 143 -24 33 -24 33 -33 10 -5 -13 -11 -63 -14 -113
-8 -151 41 -307 124 -393 39 -41 45 -44 79 -39 20 3 45 14 55 23 55 50 120
197 170 386 19 68 23 110 23 233 0 166 -12 233 -64 336 -58 114 -117 145 -179
93z m114 -148 c44 -47 60 -111 60 -236 0 -118 -20 -192 -59 -230 -32 -29 -60
-20 -89 28 -58 95 -72 230 -36 348 19 64 59 124 82 124 5 0 24 -15 42 -34z"/>
<path d="M997 3273 c-3 -10 -35 -103 -70 -208 -36 -104 -100 -291 -142 -415
l-77 -225 18 -33 c11 -21 23 -31 32 -27 46 17 92 16 137 -4 26 -11 51 -19 55
-16 5 3 15 25 23 49 15 42 14 45 -7 65 -11 11 -43 29 -69 41 -26 12 -47 26
-47 33 0 16 32 113 129 397 45 129 81 245 81 258 0 26 -36 102 -49 102 -5 0
-11 -8 -14 -17z"/>
<path d="M1214 1668 c-40 -19 -56 -86 -34 -143 27 -72 137 -166 255 -220 121
-56 322 -114 430 -125 171 -18 238 28 213 146 -8 38 -22 59 -73 110 -35 34
-61 65 -58 67 2 3 19 1 36 -4 51 -14 54 -13 48 32 -6 41 -7 42 -65 60 -32 10
-62 16 -67 13 -5 -3 -7 -21 -3 -40 3 -19 3 -34 -1 -34 -4 0 -49 14 -99 32
-192 67 -333 29 -312 -85 4 -20 23 -57 42 -83 19 -25 34 -50 32 -54 -5 -14
-155 56 -210 97 -71 54 -98 114 -64 143 8 6 33 13 56 15 23 1 43 5 45 7 3 2 0
21 -6 41 l-10 37 -67 -1 c-37 0 -77 -5 -88 -11z m593 -190 c143 -52 230 -177
146 -209 -124 -47 -363 79 -363 191 0 52 103 61 217 18z"/>
<path d="M3475 6093 c-15 -70 -26 -101 -45 -118 -24 -22 -25 -32 -4 -73 20
-41 45 -41 78 -1 15 17 32 29 40 26 8 -3 70 -104 139 -224 68 -121 131 -229
138 -241 10 -16 24 -22 51 -22 21 0 38 5 38 11 0 6 -22 48 -49 93 -50 83 -71
120 -124 216 -33 60 -174 301 -197 338 -21 32 -58 29 -65 -5z"/>
<path d="M3730 6108 c-43 -23 -56 -59 -42 -115 15 -55 33 -73 75 -73 28 0 28
1 22 45 -7 41 -5 45 20 57 58 26 154 -24 207 -110 29 -47 21 -116 -25 -218
-41 -91 -49 -172 -22 -224 l16 -30 189 0 c208 0 206 -1 170 58 l-20 32 -140 0
c-77 0 -140 4 -140 9 0 5 19 55 41 112 49 120 53 179 21 252 -28 64 -113 151
-178 183 -63 31 -157 41 -194 22z"/>
<path d="M5300 5184 c-95 -15 -150 -29 -189 -49 l-45 -23 94 -7 c52 -3 154
-13 225 -20 72 -8 181 -17 243 -21 131 -8 127 -2 86 -129 -14 -44 -36 -116
-49 -160 -13 -44 -56 -186 -95 -315 -40 -129 -78 -255 -85 -280 -7 -25 -31
-106 -54 -180 -22 -74 -38 -136 -36 -138 2 -3 30 0 61 4 l57 9 18 60 c24 81
131 433 175 575 19 63 39 126 43 140 25 82 38 -45 40 -392 0 -125 5 -229 10
-232 5 -3 25 12 44 33 73 81 69 45 58 482 l-10 394 -75 72 c-97 94 -209 149
-341 169 -88 14 -125 15 -175 8z"/>
<path d="M4885 4876 c-56 -18 -85 -35 -85 -50 0 -7 14 -32 31 -55 21 -30 36
-41 47 -38 9 3 36 13 60 22 56 20 109 7 162 -41 49 -45 70 -90 70 -153 0 -42
-5 -56 -32 -87 -18 -20 -47 -43 -65 -50 -43 -19 -163 -18 -260 2 -112 22 -108
23 -106 -6 2 -14 8 -42 14 -63 14 -42 27 -48 168 -68 250 -35 400 61 401 257
0 60 -5 81 -31 133 -80 160 -234 241 -374 197z"/>
<path d="M4360 4483 c-39 -6 -98 -34 -104 -49 -3 -7 41 -71 97 -142 56 -70
144 -183 196 -250 52 -67 98 -122 103 -122 5 0 -10 26 -35 58 -39 50 -84 135
-130 242 -8 19 -21 71 -27 115 -22 146 -23 150 -50 151 -14 1 -36 0 -50 -3z"/>
<path d="M2763 3990 c-93 -19 -170 -79 -210 -166 -22 -49 -46 -145 -37 -153 7
-8 126 -21 135 -15 5 3 9 17 9 31 0 51 24 104 61 138 117 105 300 43 323 -109
16 -105 -46 -210 -219 -368 -150 -138 -233 -225 -269 -282 -37 -58 -66 -136
-66 -178 l0 -28 350 0 350 0 0 69 0 70 -52 6 c-29 4 -137 4 -239 2 -103 -3
-193 -1 -200 4 -11 6 -7 15 16 40 34 36 130 129 219 210 160 146 243 277 253
398 5 65 -12 152 -38 185 -41 54 -89 101 -118 115 -72 37 -177 49 -268 31z"/>
<path d="M3558 3990 c-172 -43 -258 -233 -258 -568 0 -350 83 -527 269 -572
94 -22 206 3 277 63 169 143 196 741 43 962 -35 51 -61 73 -116 97 -51 22
-161 31 -215 18z m149 -131 c56 -27 95 -85 119 -174 14 -56 18 -108 18 -260
-1 -273 -30 -380 -121 -436 -28 -17 -45 -21 -95 -17 -56 4 -64 8 -99 45 -61
65 -80 144 -86 345 -9 298 31 452 132 499 52 24 79 24 132 -2z"/>
<path d="M5296 3553 c-9 -26 -16 -50 -16 -55 0 -4 26 -8 58 -8 l59 0 12 41 c7
23 15 47 18 55 4 11 -8 14 -55 14 l-60 0 -16 -47z"/>
<path d="M5800 3545 l0 -55 55 0 55 0 0 55 0 55 -55 0 -55 0 0 -55z"/>
<path d="M5561 3542 c-18 -35 -14 -52 15 -52 22 0 24 3 18 23 -14 45 -21 52
-33 29z"/>
<path d="M5197 3223 c-3 -5 -12 -33 -20 -63 -9 -30 -25 -86 -37 -125 -25 -80
-38 -124 -75 -250 -34 -119 -45 -145 -60 -145 -8 0 -14 -43 -19 -156 -3 -87
-4 -159 -2 -161 2 -2 12 9 22 26 10 17 24 31 30 31 7 0 55 -46 106 -102 51
-56 136 -147 189 -202 52 -56 141 -153 196 -216 56 -63 127 -140 157 -170 31
-30 56 -59 56 -65 0 -6 -37 -33 -82 -60 -46 -28 -125 -76 -176 -108 -52 -31
-112 -68 -135 -81 -69 -39 -249 -146 -301 -180 -49 -31 -49 -31 -20 -34 16 -2
67 -2 114 0 l85 3 180 106 c99 59 240 142 312 185 l133 79 -6 55 c-3 30 -10
63 -15 72 -5 9 -9 28 -9 42 0 16 -10 32 -29 45 -16 12 -53 52 -82 89 -29 37
-100 117 -159 177 -58 61 -123 132 -145 160 -22 27 -74 84 -116 125 -135 135
-179 189 -179 220 0 16 11 64 25 107 22 72 49 161 139 458 18 61 37 118 41
128 6 15 0 17 -53 17 -34 0 -63 -3 -65 -7z"/>
<path d="M5400 3198 c-7 -18 -15 -94 -17 -169 -6 -159 10 -242 51 -260 23 -11
24 -15 23 -113 -1 -110 12 -167 45 -190 31 -22 51 -6 81 61 34 77 49 200 37
299 -10 81 -15 92 -41 111 -14 11 -16 27 -11 127 2 62 2 126 -2 140 -6 25 -9
26 -80 26 l-74 0 -12 -32z m106 -5 c26 -40 27 -209 0 -275 -25 -64 -42 -68
-66 -15 -32 70 -23 235 16 295 19 29 28 28 50 -5z m65 -385 c23 -86 -4 -238
-41 -238 -34 0 -41 169 -10 238 10 23 24 42 29 42 6 0 15 -19 22 -42z"/>
<path d="M5600 3210 c0 -12 16 -99 35 -196 19 -96 35 -181 35 -189 0 -7 5 -26
11 -42 10 -26 11 -26 21 -9 11 20 27 235 27 366 0 93 -12 87 -24 -12 -11 -90
-23 -79 -46 40 -10 55 -14 62 -35 62 -17 0 -24 -6 -24 -20z"/>
<path d="M3482 2153 l-43 -4 7 -217 c3 -119 9 -347 13 -507 l6 -290 36 -3 c34
-3 39 1 83 61 49 67 120 131 194 174 42 25 42 25 42 84 0 47 -3 59 -15 59 -22
0 -70 -25 -143 -76 -35 -25 -68 -42 -73 -39 -5 4 -10 104 -10 228 -1 122 -4
292 -8 377 -7 174 1 161 -89 153z"/>
<path d="M2830 2026 c0 -129 2 -126 -81 -126 l-49 0 0 -60 c0 -66 -6 -61 80
-64 l45 -1 6 -205 c3 -113 7 -258 8 -322 l1 -118 55 0 55 0 39 63 c37 57 123
192 307 477 72 112 74 116 74 179 l0 64 -207 -4 -208 -4 -3 118 -3 117 -59 0
-60 0 0 -114z m395 -246 c4 -6 -27 -62 -67 -126 -40 -63 -97 -153 -126 -200
-29 -46 -58 -82 -63 -79 -5 4 -9 93 -9 205 l0 199 104 3 c57 2 115 4 129 5 14
2 29 -2 32 -7z"/>
<path d="M4907 1682 c-2 -15 -8 -35 -12 -45 -6 -14 6 -23 71 -52 105 -47 124
-57 124 -65 0 -4 -51 -17 -112 -29 -112 -23 -128 -30 -128 -63 0 -9 -4 -19 -9
-22 -9 -6 -22 -56 -14 -56 2 0 36 6 76 14 40 8 147 29 240 47 l167 32 0 31 c0
18 -6 40 -12 49 -7 9 -62 39 -123 66 -60 27 -144 65 -186 84 l-77 36 -5 -27z"/>
<path d="M4511 1403 c-22 -4 -23 -8 -17 -51 6 -42 13 -61 19 -51 1 2 14 28 29
57 30 56 30 56 -31 45z"/>
<path d="M4792 1265 c-15 -33 -15 -35 3 -35 10 0 15 10 15 30 0 37 -3 37 -18
5z"/>
<path d="M4487 859 c-37 -22 -66 -46 -64 -52 2 -8 36 -13 91 -15 l88 -3 79 47
c43 25 82 50 85 55 3 5 -41 9 -103 9 l-108 0 -68 -41z"/>
</g>
</svg>
